<svg xmlns="http://www.w3.org/2000/svg" viewBox="0 0 1200 560" role="img" aria-labelledby="title desc">
  <title id="title">OrbitOS logo</title>
  <desc id="desc">OrbitOS mascot and wordmark.</desc>
  <defs>
    <linearGradient id="head" x1="0" y1="0" x2="1" y2="1">
      <stop offset="0%" stop-color="#ffc0ae" />
      <stop offset="100%" stop-color="#ffad95" />
    </linearGradient>
    <filter id="shadow" x="-20%" y="-20%" width="140%" height="140%">
      <feDropShadow dx="0" dy="10" stdDeviation="10" flood-color="#1a1a1a" flood-opacity="0.10" />
    </filter>
  </defs>

  <g filter="url(#shadow)">
    <ellipse cx="600" cy="152" rx="126" ry="116" fill="url(#head)" stroke="#101010" stroke-width="8" />
    <path d="M531 80 C548 60 570 52 582 58" fill="none" stroke="#fff3ec" stroke-width="16" stroke-linecap="round" opacity="0.72" />

    <path d="M498 240 C451 255 434 292 444 336 C454 321 473 305 482 276" fill="#ffb29a" stroke="#101010" stroke-width="8" stroke-linejoin="round" />
    <path d="M535 250 C500 276 488 322 500 370 C518 350 534 321 540 285" fill="#ffb29a" stroke="#101010" stroke-width="8" stroke-linejoin="round" />
    <path d="M573 257 C549 292 545 337 556 388 C577 365 589 330 590 292" fill="#ffb29a" stroke="#101010" stroke-width="8" stroke-linejoin="round" />
    <path d="M611 260 C602 296 607 341 622 389 C641 365 649 329 643 292" fill="#ffb29a" stroke="#101010" stroke-width="8" stroke-linejoin="round" />
    <path d="M649 257 C664 291 674 338 665 388 C642 365 631 329 632 292" fill="#ffb29a" stroke="#101010" stroke-width="8" stroke-linejoin="round" />
    <path d="M687 250 C717 274 734 321 720 370 C700 351 687 322 682 286" fill="#ffb29a" stroke="#101010" stroke-width="8" stroke-linejoin="round" />
    <path d="M724 240 C764 255 783 293 774 336 C762 320 744 305 736 276" fill="#ffb29a" stroke="#101010" stroke-width="8" stroke-linejoin="round" />
    <path d="M471 228 C437 234 418 253 416 285 C428 270 446 258 462 242" fill="#ffb29a" stroke="#101010" stroke-width="8" stroke-linejoin="round" />
    <path d="M729 228 C765 233 783 252 786 285 C774 271 756 259 738 242" fill="#ffb29a" stroke="#101010" stroke-width="8" stroke-linejoin="round" />

    <circle cx="548" cy="145" r="28" fill="#ffffff" stroke="#101010" stroke-width="6" />
    <circle cx="652" cy="145" r="28" fill="#ffffff" stroke="#101010" stroke-width="6" />
    <circle cx="548" cy="150" r="14" fill="#101010" />
    <circle cx="652" cy="150" r="14" fill="#101010" />
    <circle cx="540" cy="140" r="5" fill="#ffffff" />
    <circle cx="644" cy="140" r="5" fill="#ffffff" />
    <path d="M570 196 C590 210 611 210 630 196" fill="none" stroke="#101010" stroke-width="8" stroke-linecap="round" />
  </g>

  <text x="600" y="512" text-anchor="middle" font-family="Arial Black, Arial, Helvetica, sans-serif" font-size="170" font-weight="900" fill="#101010">OrbitOS</text>
</svg>